<?xml version="1.0" encoding="utf-8"?>
<!-- Generator: Adobe Illustrator 27.0.0, SVG Export Plug-In . SVG Version: 6.00 Build 0)  -->
<svg version="1.1" id="Layer_1" xmlns="http://www.w3.org/2000/svg" xmlns:xlink="http://www.w3.org/1999/xlink" x="0px" y="0px"
	 viewBox="0 0 595.28 841.89" style="enable-background:new 0 0 595.28 841.89;" xml:space="preserve">
<style type="text/css">
	.st0{fill:#231F20;}
	.st1{fill:#2E3191;}
	.st2{fill:#FFFFFF;stroke:#FF0000;stroke-width:0.028;stroke-miterlimit:10;}
	.st3{fill:none;}
	.st4{fill:#0000FF;}
</style>
<path class="st0" d="M28.07,222.36"/>
<path class="st0" d="M270.76,678.72"/>
<path class="st0" d="M76.61,554.78"/>
<path class="st0" d="M74.82,572.69"/>
<path class="st1" d="M235.12,663.31"/>
<path class="st1" d="M291,510.36"/>
<g>
	<g>
		<path class="st2" d="M295.97,397.28h4.59v-5.67h19.84v5.67h44.08v-5.67h36v5.67h51.93v-5.67h36v5.67h44.08v-5.67h19.84v5.67h4.59
			V271.2c-22.46-50.5-73.15-83.5-129.05-84.05c-56.92-0.56-109.03,32.63-131.91,84.05C295.97,313.23,295.97,355.25,295.97,397.28z"
			/>
	</g>
	<rect x="374.33" y="250.21" class="st3" width="104.96" height="122.87"/>
	<polyline class="st4" points="417.12,237.88 417.12,308.86 390.82,308.86 390.94,329.3 390.94,329.3 462.09,329.3 462.09,308.86 
		436.16,308.86 436.16,237.88 462.09,237.88 462.09,219.42 390.94,219.42 390.82,237.88 	"/>
</g>
<path class="st0" d="M355.12,588.99"/>
<g>
	<path class="st2" d="M25.55,397.28h4.59v-5.67h19.84v5.67h44.08v-5.67h36v5.67H182v-5.67h36v5.67h44.08v-5.67h19.84v5.67h4.59
		V271.2c-22.46-50.5-73.15-83.5-129.05-84.05c-56.92-0.56-109.03,32.63-131.91,84.05C25.55,313.23,25.55,355.25,25.55,397.28z"/>
</g>
<rect x="103.91" y="250.21" class="st3" width="104.96" height="122.87"/>
</svg>
