<?xml version="1.0" encoding="UTF-8"?>
<svg id="Layer_1" data-name="Layer 1" xmlns="http://www.w3.org/2000/svg" viewBox="0 0 416.88 478.92">
  <defs>
    <style>
      .cls-1 {
        fill: blue;
      }

      .cls-2 {
        fill: #fff;
        stroke: red;
        stroke-miterlimit: 10;
        stroke-width: .03px;
      }
    </style>
  </defs>
  <path class="cls-2" d="M155.91,217.63h4.59s0-5.67,0-5.67h19.84v5.67s44.08,0,44.08,0v-5.67h36v5.67s51.93,0,51.93,0v-5.67h36v5.67s44.08,0,44.08,0v-5.67h19.84v5.67s4.59,0,4.59,0V91.55C394.41,41.06,343.72,8.05,287.82,7.5c-56.92-.56-109.03,32.63-131.91,84.05,0,42.03,0,84.05,0,126.08Z"/>
  <text/>
  <polyline class="cls-1" points="277.06 58.23 277.06 129.21 250.75 129.21 250.88 149.66 250.88 149.66 322.02 149.66 322.02 129.21 296.09 129.21 296.09 58.23 322.02 58.23 322.02 39.78 250.88 39.78 250.75 58.23"/>
</svg>